<mxfile host="app.diagrams.net" agent="Mozilla/5.0 (X11; Linux x86_64) AppleWebKit/537.36 (KHTML, like Gecko) Chrome/139.0.0.0 Safari/537.36" version="28.2.4">
  <diagram name="Page-1" id="c2j5alkYennZf4JXrffb">
    <mxGraphModel dx="807" dy="467" grid="1" gridSize="10" guides="1" tooltips="1" connect="1" arrows="1" fold="1" page="1" pageScale="1" pageWidth="1400" pageHeight="850" math="0" shadow="0">
      <root>
        <mxCell id="0" />
        <mxCell id="1" parent="0" />
        <mxCell id="bPNC1vmQqjACYEUyeoW2-6" style="edgeStyle=orthogonalEdgeStyle;rounded=0;orthogonalLoop=1;jettySize=auto;html=1;exitX=1;exitY=0.75;exitDx=0;exitDy=0;entryX=0;entryY=0.75;entryDx=0;entryDy=0;" edge="1" parent="1" source="bPNC1vmQqjACYEUyeoW2-1" target="bPNC1vmQqjACYEUyeoW2-4">
          <mxGeometry relative="1" as="geometry" />
        </mxCell>
        <mxCell id="bPNC1vmQqjACYEUyeoW2-1" value="WEB APP" style="rounded=1;whiteSpace=wrap;html=1;" vertex="1" parent="1">
          <mxGeometry x="40" y="170" width="120" height="60" as="geometry" />
        </mxCell>
        <mxCell id="bPNC1vmQqjACYEUyeoW2-7" style="edgeStyle=orthogonalEdgeStyle;rounded=0;orthogonalLoop=1;jettySize=auto;html=1;exitX=0;exitY=0.25;exitDx=0;exitDy=0;entryX=1;entryY=0.25;entryDx=0;entryDy=0;" edge="1" parent="1" source="bPNC1vmQqjACYEUyeoW2-4" target="bPNC1vmQqjACYEUyeoW2-1">
          <mxGeometry relative="1" as="geometry" />
        </mxCell>
        <mxCell id="bPNC1vmQqjACYEUyeoW2-10" style="edgeStyle=orthogonalEdgeStyle;rounded=0;orthogonalLoop=1;jettySize=auto;html=1;exitX=1;exitY=0.75;exitDx=0;exitDy=0;entryX=0;entryY=0.75;entryDx=0;entryDy=0;" edge="1" parent="1" source="bPNC1vmQqjACYEUyeoW2-4" target="bPNC1vmQqjACYEUyeoW2-9">
          <mxGeometry relative="1" as="geometry" />
        </mxCell>
        <mxCell id="bPNC1vmQqjACYEUyeoW2-4" value="TAILSCALE BRIDGE" style="rounded=1;whiteSpace=wrap;html=1;" vertex="1" parent="1">
          <mxGeometry x="240" y="170" width="120" height="60" as="geometry" />
        </mxCell>
        <mxCell id="bPNC1vmQqjACYEUyeoW2-11" style="edgeStyle=orthogonalEdgeStyle;rounded=0;orthogonalLoop=1;jettySize=auto;html=1;exitX=0;exitY=0.25;exitDx=0;exitDy=0;entryX=1;entryY=0.25;entryDx=0;entryDy=0;" edge="1" parent="1" source="bPNC1vmQqjACYEUyeoW2-9" target="bPNC1vmQqjACYEUyeoW2-4">
          <mxGeometry relative="1" as="geometry" />
        </mxCell>
        <mxCell id="bPNC1vmQqjACYEUyeoW2-15" style="edgeStyle=orthogonalEdgeStyle;rounded=0;orthogonalLoop=1;jettySize=auto;html=1;exitX=1;exitY=0.75;exitDx=0;exitDy=0;entryX=0;entryY=0.75;entryDx=0;entryDy=0;" edge="1" parent="1" source="bPNC1vmQqjACYEUyeoW2-9" target="bPNC1vmQqjACYEUyeoW2-12">
          <mxGeometry relative="1" as="geometry" />
        </mxCell>
        <mxCell id="bPNC1vmQqjACYEUyeoW2-9" value="RASPBERRY PI ZERO 2 W ON DIETPI" style="rounded=1;whiteSpace=wrap;html=1;" vertex="1" parent="1">
          <mxGeometry x="440" y="170" width="120" height="60" as="geometry" />
        </mxCell>
        <mxCell id="bPNC1vmQqjACYEUyeoW2-16" style="edgeStyle=orthogonalEdgeStyle;rounded=0;orthogonalLoop=1;jettySize=auto;html=1;exitX=0;exitY=0.25;exitDx=0;exitDy=0;entryX=1;entryY=0.25;entryDx=0;entryDy=0;" edge="1" parent="1" source="bPNC1vmQqjACYEUyeoW2-12" target="bPNC1vmQqjACYEUyeoW2-9">
          <mxGeometry relative="1" as="geometry" />
        </mxCell>
        <mxCell id="bPNC1vmQqjACYEUyeoW2-21" style="edgeStyle=orthogonalEdgeStyle;rounded=0;orthogonalLoop=1;jettySize=auto;html=1;exitX=0.5;exitY=0;exitDx=0;exitDy=0;entryX=0.5;entryY=1;entryDx=0;entryDy=0;" edge="1" parent="1" source="bPNC1vmQqjACYEUyeoW2-12" target="bPNC1vmQqjACYEUyeoW2-14">
          <mxGeometry relative="1" as="geometry" />
        </mxCell>
        <mxCell id="bPNC1vmQqjACYEUyeoW2-12" value="C/C++ &amp;amp; PYTHON PROGRAM" style="rounded=1;whiteSpace=wrap;html=1;" vertex="1" parent="1">
          <mxGeometry x="640" y="170" width="120" height="60" as="geometry" />
        </mxCell>
        <mxCell id="bPNC1vmQqjACYEUyeoW2-20" style="edgeStyle=orthogonalEdgeStyle;rounded=0;orthogonalLoop=1;jettySize=auto;html=1;exitX=0.5;exitY=0;exitDx=0;exitDy=0;entryX=0.5;entryY=1;entryDx=0;entryDy=0;" edge="1" parent="1" source="bPNC1vmQqjACYEUyeoW2-13" target="bPNC1vmQqjACYEUyeoW2-12">
          <mxGeometry relative="1" as="geometry" />
        </mxCell>
        <mxCell id="bPNC1vmQqjACYEUyeoW2-13" value="LIGHT SENSORS" style="rounded=1;whiteSpace=wrap;html=1;" vertex="1" parent="1">
          <mxGeometry x="640" y="290" width="120" height="60" as="geometry" />
        </mxCell>
        <mxCell id="bPNC1vmQqjACYEUyeoW2-14" value="STEPPER MOTOR" style="rounded=1;whiteSpace=wrap;html=1;" vertex="1" parent="1">
          <mxGeometry x="640" y="50" width="120" height="60" as="geometry" />
        </mxCell>
        <mxCell id="bPNC1vmQqjACYEUyeoW2-17" value="Wi-Fi" style="text;html=1;align=center;verticalAlign=middle;whiteSpace=wrap;rounded=0;" vertex="1" parent="1">
          <mxGeometry x="170" y="160" width="60" height="30" as="geometry" />
        </mxCell>
        <mxCell id="bPNC1vmQqjACYEUyeoW2-18" value="Wi-Fi" style="text;html=1;align=center;verticalAlign=middle;whiteSpace=wrap;rounded=0;" vertex="1" parent="1">
          <mxGeometry x="370" y="160" width="60" height="30" as="geometry" />
        </mxCell>
        <mxCell id="bPNC1vmQqjACYEUyeoW2-19" value="SYSTEMD" style="text;html=1;align=center;verticalAlign=middle;whiteSpace=wrap;rounded=0;" vertex="1" parent="1">
          <mxGeometry x="570" y="160" width="60" height="30" as="geometry" />
        </mxCell>
        <mxCell id="bPNC1vmQqjACYEUyeoW2-22" value="I2C" style="text;html=1;align=center;verticalAlign=middle;whiteSpace=wrap;rounded=0;" vertex="1" parent="1">
          <mxGeometry x="680" y="130" width="60" height="30" as="geometry" />
        </mxCell>
        <mxCell id="bPNC1vmQqjACYEUyeoW2-23" value="I2C" style="text;html=1;align=center;verticalAlign=middle;whiteSpace=wrap;rounded=0;" vertex="1" parent="1">
          <mxGeometry x="680" y="250" width="60" height="30" as="geometry" />
        </mxCell>
      </root>
    </mxGraphModel>
  </diagram>
</mxfile>
